<?xml version="1.0" encoding="utf-8"?>
<!-- Generator: Adobe Illustrator 24.0.1, SVG Export Plug-In . SVG Version: 6.00 Build 0)  -->
<svg version="1.1" id="Laag_1" xmlns="http://www.w3.org/2000/svg" xmlns:xlink="http://www.w3.org/1999/xlink" x="0px" y="0px"
	 viewBox="0 0 512 512" style="enable-background:new 0 0 512 512;" xml:space="preserve">
<path style="fill:#C99D66;stroke:#936037;stroke-width:12;stroke-miterlimit:10;" d="M248.523,283.026l-0.001,53.907l-0.001,154.117
	c0,8.256,6.694,14.95,14.95,14.95c2.722,0,5.273-0.729,7.471-2l179.401-103.572c13.404-7.755,22.425-22.247,22.425-38.847
	l0.003-207.151c-0.014-15.486-8.054-30.543-22.429-38.843L270.944,12.012c-13.418-7.731-30.479-8.297-44.854,0.004L46.697,115.593
	c-2.2,1.268-4.103,3.111-5.464,5.468c-4.128,7.15-1.678,16.293,5.472,20.422l106.604,61.548l72.785,41.152
	C240.469,252.483,248.509,267.54,248.523,283.026"/>
<g>
	<path style="fill:#FFFFFF;" d="M299.021,235.519l30.981-17.887v16.582c10.305-17.822,23.585-31.679,39.834-41.576
		c18.923-10.41,32.746-11.434,41.464-3.059c4.248,2.563,7.161,7.484,8.749,14.753c1.483,7.232,2.222,20.519,2.222,39.862
		c0,18.834-0.744,32.773-2.231,41.82c-1.583,9.104-4.505,17.491-8.762,25.169c-4.261,8.602-9.862,16.749-16.793,24.434
		c-6.835,7.736-15.053,14.472-24.663,20.227c-7.927,4.577-15.01,6.885-21.25,6.925c-6.735,0.632-12.923-0.277-18.571-2.718v81.422
		l-30.981,17.887V235.519z M360.496,329.31c7.34-4.238,13.14-9.024,17.406-14.363c4.261-5.437,7.288-10.984,9.075-16.638
		c1.978-5.969,3.318-12.082,4.013-18.338c0.196-5.863,0.296-11.828,0.296-17.887c0-6.366-0.1-12.522-0.296-18.468
		c-0.696-5.658-2.035-10.224-4.013-13.704c-1.787-3.795-4.813-5.848-9.075-6.16c-4.266-0.105-10.066,1.961-17.406,6.199
		c-6.94,4.007-12.449,8.677-16.51,13.998c-4.266,5.443-7.392,11.151-9.375,17.122c-1.883,5.914-3.122,11.866-3.718,17.859
		c-0.591,6.301-0.891,12.479-0.891,18.536c0,5.65,0.3,11.126,0.891,16.43c0.596,5.615,1.835,10.289,3.718,14.029
		c1.983,3.682,5.109,5.781,9.375,6.295C348.047,334.958,353.556,333.316,360.496,329.31z"/>
</g>
</svg>
